<?xml version="1.0" encoding="iso-8859-1"?>
<!-- Uploaded to: SVG Repo, www.svgrepo.com, Generator: SVG Repo Mixer Tools -->
<svg fill="#000000" height="800px" width="800px" version="1.1" id="Layer_1" xmlns="http://www.w3.org/2000/svg" xmlns:xlink="http://www.w3.org/1999/xlink" 
	 viewBox="0 0 512.011 512.011" xml:space="preserve">
<g>
	<g>
		<g>
			<path d="M365.293,476.273c6.204,1.161,12.587,1.749,18.961,1.749c6.11,0,12.237-0.538,18.21-1.613
				c4.642-0.828,7.723-5.265,6.895-9.899c-0.836-4.642-5.248-7.74-9.907-6.895c-10.189,1.818-20.89,1.783-31.01-0.119
				c-4.676-0.853-9.096,2.185-9.967,6.81C357.613,470.94,360.66,475.403,365.293,476.273z"/>
			<path d="M426.878,462.603c1.604,0,3.226-0.452,4.668-1.391c17.903-11.716,31.505-28.399,39.322-48.256
				c1.724-4.378-0.435-9.335-4.821-11.068c-4.386-1.732-9.336,0.435-11.068,4.821c-6.511,16.538-17.843,30.447-32.777,40.218
				c-3.942,2.586-5.052,7.876-2.466,11.819C421.366,461.246,424.097,462.603,426.878,462.603z"/>
			<path d="M426.597,350.022c0-14.114-11.477-25.6-25.6-25.6c-14.114,0-25.6,11.486-25.6,25.6c0,14.123,11.486,25.6,25.6,25.6
				C415.12,375.622,426.597,364.145,426.597,350.022z M400.997,358.556c-4.702,0-8.533-3.823-8.533-8.533
				c0-4.702,3.831-8.533,8.533-8.533c4.71,0,8.533,3.831,8.533,8.533C409.53,354.733,405.707,358.556,400.997,358.556z"/>
			<path d="M332.884,238.935c1.963,0,3.942-0.674,5.547-2.057c3.584-3.063,3.994-8.448,0.93-12.032l-26.266-30.66
				c-3.063-3.584-8.456-4.002-12.032-0.93c-3.575,3.063-3.994,8.448-0.93,12.023l26.274,30.669
				C328.088,237.92,330.486,238.935,332.884,238.935z"/>
			<path d="M256.084,375.494c0.043,16.009,3.132,31.471,9.165,45.935c1.365,3.277,4.54,5.248,7.876,5.248
				c1.101,0,2.21-0.213,3.285-0.657c4.352-1.818,6.409-6.818,4.591-11.162c-5.171-12.39-7.817-25.651-7.851-39.415
				c-0.094-38.016,15.198-51.772,32.896-67.703c8.115-7.305,16.521-14.857,24.021-25.045c7.091-9.626,30.191-9.626,45.483-9.626
				c4.301,0,8.764,2.56,14.404,5.794c8.866,5.094,19.891,11.426,36.642,11.426c4.71,0,8.533-3.814,8.533-8.533
				c0-4.71-3.823-8.533-8.533-8.533c-12.194,0-20.301-4.651-28.143-9.156c-6.912-3.968-14.054-8.064-22.904-8.064
				c-19.84,0-47.01,0-59.221,16.572c-6.468,8.781-14.217,15.744-21.7,22.477C275.625,312.16,255.964,329.841,256.084,375.494z"/>
			<path d="M278.108,178.878c1.69,2.039,4.122,3.089,6.579,3.089c1.92,0,3.849-0.64,5.444-1.963
				c3.627-3.012,4.13-8.388,1.118-12.015l-27.264-32.905c-3.004-3.627-8.388-4.13-12.015-1.118c-3.627,3.004-4.13,8.38-1.126,12.015
				L278.108,178.878z"/>
			<path d="M319.93,384.156c-7.057,0-12.8,5.743-12.8,12.8c0,7.066,5.743,12.8,12.8,12.8s12.8-5.734,12.8-12.8
				C332.73,389.899,326.987,384.156,319.93,384.156z"/>
			<path d="M339.736,336.258c2.91-4.19,6.212-8.124,9.796-11.708c3.763-3.763,7.876-7.177,12.22-10.146
				c3.891-2.662,4.881-7.979,2.219-11.861c-2.645-3.883-7.962-4.881-11.853-2.227c-5.214,3.567-10.146,7.663-14.652,12.16
				c-4.292,4.292-8.243,9.011-11.733,14.012c-2.697,3.866-1.749,9.19,2.116,11.887c1.485,1.033,3.191,1.528,4.873,1.528
				C335.418,339.902,338.072,338.63,339.736,336.258z"/>
			<path d="M204.884,213.327c2.185,0,4.369-0.828,6.033-2.5c3.328-3.328,3.328-8.73,0-12.066l-34.116-34.108
				c-3.337-3.337-8.738-3.337-12.066,0c-3.337,3.328-3.337,8.738,0,12.066l34.116,34.108
				C200.515,212.499,202.699,213.327,204.884,213.327z"/>
			<path d="M358.484,413.869c0,7.057,5.743,12.8,12.8,12.8s12.8-5.743,12.8-12.8s-5.743-12.8-12.8-12.8
				S358.484,406.812,358.484,413.869z"/>
			<path d="M81.202,194.562c-3.601-3.046-8.986-2.611-12.023,0.981c-3.046,3.601-2.611,8.986,0.981,12.032l36.002,30.532
				c1.604,1.357,3.567,2.022,5.513,2.022c2.423,0,4.83-1.024,6.519-3.012c3.046-3.593,2.603-8.977-0.99-12.023L81.202,194.562z"/>
			<path d="M28.201,40.186c1.664,1.664,3.849,2.5,6.033,2.5c2.185,0,4.361-0.836,6.033-2.5c3.328-3.337,3.328-8.738,0-12.066
				L14.65,2.502c-3.337-3.337-8.738-3.337-12.066,0c-3.336,3.328-3.336,8.73,0,12.066L28.201,40.186z"/>
			<path d="M79.367,91.351c1.664,1.664,3.849,2.5,6.033,2.5c2.185,0,4.369-0.836,6.033-2.5c3.336-3.337,3.336-8.738,0-12.066
				L65.85,53.702c-3.337-3.336-8.738-3.336-12.066,0c-3.337,3.328-3.337,8.73,0,12.066L79.367,91.351z"/>
			<path d="M507.416,369.308c-2.065-8.252-4.019-16.051-4.019-27.819c0-31.804-12.356-46.839-22.298-58.923
				c-1.69-2.057-3.337-4.053-4.855-6.084L271.444,3.415c-2.825-3.763-8.166-4.54-11.947-1.707c-3.772,2.825-4.54,8.175-1.707,11.947
				l204.8,273.058c1.664,2.236,3.473,4.429,5.333,6.69c9.045,11.008,18.406,22.4,18.406,48.085c0,13.875,2.304,23.066,4.531,31.966
				c2.065,8.209,4.002,15.966,4.002,27.614c0,9.463-1.741,13.858-3.755,18.953c-2.236,5.649-4.779,12.058-4.779,23.868
				c0,19.746-23.808,31.949-44.826,42.718l-1.732,0.896c-14.652,7.509-41.267,7.415-60.484,7.432h-3.738
				c-7.646,0-15.309-4.173-23.415-8.585c-5.316-2.893-10.803-5.888-16.657-7.876c-6.588-2.227-13.039-3.669-19.268-5.052
				c-11.332-2.526-21.12-4.702-29.406-10.914l-273.067-204.8c-3.78-2.842-9.122-2.057-11.947,1.707
				c-2.833,3.772-2.065,9.122,1.707,11.947l273.067,204.8c11.23,8.414,23.791,11.213,35.942,13.918
				c5.786,1.289,11.776,2.628,17.485,4.557c4.463,1.519,9.088,4.036,13.986,6.699c9.173,5.001,19.584,10.667,31.573,10.667h3.712
				c1.391,0.009,2.807,0.009,4.232,0.009c21.461,0,46.882-0.512,64.068-9.327l1.724-0.887c24.115-12.348,54.11-27.725,54.11-57.907
				c0-8.559,1.579-12.535,3.575-17.587c2.33-5.862,4.958-12.51,4.958-25.233C511.93,387.313,509.635,378.157,507.416,369.308z"/>
			<path d="M3.096,151.571l37.734,32c1.604,1.365,3.567,2.031,5.513,2.031c2.423,0,4.83-1.024,6.511-3.012
				c3.055-3.601,2.611-8.977-0.981-12.032l-37.734-32c-3.61-3.046-8.986-2.603-12.032,0.99S-0.497,148.525,3.096,151.571z"/>
			<path d="M147.489,250.362c-3.567-3.106-8.951-2.714-12.041,0.845c-3.089,3.558-2.714,8.943,0.845,12.032l31.394,27.281
				c1.613,1.399,3.61,2.091,5.589,2.091c2.389,0,4.762-0.998,6.451-2.935c3.089-3.558,2.705-8.951-0.853-12.041L147.489,250.362z"/>
			<path d="M193.68,313.167l31.334,26.18c1.596,1.34,3.533,1.988,5.461,1.988c2.441,0,4.864-1.041,6.554-3.063
				c3.021-3.618,2.543-8.994-1.075-12.023l-31.334-26.18c-3.61-3.029-8.994-2.534-12.023,1.075
				C189.575,304.762,190.061,310.146,193.68,313.167z"/>
			<path d="M264.617,273.069c2.185,0,4.369-0.836,6.033-2.5c3.328-3.336,3.328-8.738,0-12.066l-34.125-34.125
				c-3.336-3.337-8.738-3.337-12.066,0c-3.337,3.328-3.337,8.73,0,12.066l34.125,34.125
				C260.248,272.233,262.433,273.069,264.617,273.069z"/>
			<path d="M170.947,52.243c1.698,1.997,4.096,3.021,6.519,3.021c1.946,0,3.908-0.657,5.513-2.014
				c3.593-3.046,4.045-8.431,1.007-12.032L151.67,3.023c-3.055-3.601-8.431-4.045-12.032-1.007
				c-3.601,3.046-4.045,8.431-1.007,12.032L170.947,52.243z"/>
			<path d="M225.714,116.943c1.681,2.014,4.104,3.046,6.536,3.046c1.937,0,3.883-0.649,5.487-1.997
				c3.61-3.029,4.079-8.405,1.05-12.023l-30.43-36.258c-3.029-3.601-8.414-4.07-12.032-1.05c-3.601,3.038-4.079,8.414-1.05,12.023
				L225.714,116.943z"/>
			<path d="M139.109,151.093c1.664,1.664,3.849,2.5,6.033,2.5c2.185,0,4.369-0.836,6.033-2.5c3.337-3.337,3.337-8.738,0-12.066
				l-34.125-34.125c-3.337-3.337-8.738-3.337-12.066,0c-3.337,3.328-3.337,8.73,0,12.066L139.109,151.093z"/>
		</g>
	</g>
</g>
</svg>