<?xml version="1.0" encoding="utf-8"?>
<!-- Generator: Adobe Illustrator 27.2.0, SVG Export Plug-In . SVG Version: 6.00 Build 0)  -->
<svg version="1.1" id="Layer_1" xmlns="http://www.w3.org/2000/svg" xmlns:xlink="http://www.w3.org/1999/xlink" x="0px" y="0px"
	 viewBox="0 0 557.6 509.5" style="enable-background:new 0 0 557.6 509.5;" xml:space="preserve">
<symbol  id="a" viewBox="-2.2 -3.5 4.4 7">
	<path d="M0.4-3.5V-2h1.8v1.2H0.4v2.3c0,0.3,0,0.4,0.1,0.5c0.1,0.1,0.3,0.1,0.6,0.1h0.9v1.2H0.6c-0.7,0-1.2-0.1-1.5-0.4
		c-0.3-0.3-0.4-0.8-0.4-1.5v-2.3h-0.9V-2h0.9v-1.5L0.4-3.5z"/>
</symbol>
<symbol  id="b" viewBox="-2.9 -2.9 5.9 5.7">
	<path d="M2.9,0v0.5h-4.1c0,0.4,0.2,0.7,0.4,0.9c0.2,0.2,0.6,0.3,1.1,0.3c0.4,0,0.7-0.1,1.1-0.2C1.9,1.4,2.3,1.3,2.7,1v1.4
		C2.3,2.6,1.8,2.7,1.4,2.7C1,2.8,0.6,2.9,0.2,2.9c-1,0-1.8-0.2-2.3-0.8C-2.7,1.6-2.9,0.9-2.9,0c0-0.9,0.3-1.6,0.8-2.1
		c0.5-0.5,1.3-0.8,2.2-0.8c0.9,0,1.5,0.3,2,0.8C2.7-1.6,2.9-0.9,2.9,0L2.9,0z M1.1-0.6c0-0.3-0.1-0.6-0.3-0.8
		C0.6-1.6,0.4-1.7,0.1-1.7c-0.3,0-0.6,0.1-0.8,0.3C-1-1.2-1.1-1-1.1-0.6L1.1-0.6z"/>
</symbol>
<symbol  id="c" viewBox="-3 -2.9 6 5.7">
	<path d="M0-1.6c-0.4,0-0.7,0.1-0.9,0.4C-1.1-0.9-1.2-0.5-1.2,0c0,0.5,0.1,0.9,0.3,1.2C-0.7,1.5-0.4,1.6,0,1.6
		c0.4,0,0.7-0.1,0.9-0.4C1.1,0.9,1.2,0.5,1.2,0c0-0.5-0.1-0.9-0.3-1.2C0.7-1.5,0.4-1.6,0-1.6z M0-2.9c0.9,0,1.7,0.3,2.2,0.8
		C2.7-1.6,3-0.9,3,0c0,0.9-0.3,1.6-0.8,2.1C1.7,2.6,0.9,2.9,0,2.9c-0.9,0-1.7-0.2-2.2-0.8C-2.7,1.6-3,0.9-3,0c0-0.9,0.3-1.6,0.8-2.1
		C-1.7-2.6-0.9-2.9,0-2.9z"/>
</symbol>
<symbol  id="d" viewBox="-2 -2.8 4.1 5.6">
	<path d="M2-1.2C1.9-1.3,1.7-1.3,1.6-1.3c-0.1,0-0.3,0-0.5,0c-0.4,0-0.8,0.1-1,0.4c-0.2,0.3-0.4,0.7-0.4,1.2v2.5H-2v-5.5h1.8v0.9
		c0.2-0.4,0.5-0.6,0.8-0.8c0.3-0.2,0.6-0.2,1-0.2h0.2c0.1,0,0.2,0,0.3,0L2-1.2z"/>
</symbol>
<symbol  id="e" viewBox="-2.8 -2.8 5.5 5.6">
	<path d="M2.7-0.5v3.3H1V0.2c0-0.5,0-0.8,0-1c0-0.2-0.1-0.3-0.1-0.4C0.8-1.2,0.7-1.3,0.6-1.4C0.4-1.5,0.3-1.5,0.2-1.5
		c-0.4,0-0.7,0.1-0.9,0.4C-0.9-0.8-1-0.4-1,0.1v2.7h-1.8v-5.5H-1v0.8c0.3-0.3,0.5-0.5,0.8-0.7c0.3-0.2,0.6-0.2,1-0.2
		c0.6,0,1.1,0.2,1.4,0.6C2.6-1.8,2.8-1.3,2.7-0.5L2.7-0.5z"/>
</symbol>
<symbol  id="f" viewBox="-3 -3.6 6 7.3">
	<path d="M-3-3.6h3.1C1-3.6,1.8-3.4,2.2-3C2.8-2.6,3-2,3-1.3c0,0.8-0.2,1.4-0.8,1.8C1.8,0.9,1,1.1,0.1,1.1h-1.2v2.5H-3L-3-3.6z
		 M-1.1-2.3v2h1c0.4,0,0.6-0.1,0.8-0.3C1-0.7,1.1-0.9,1.1-1.3C1.1-1.6,1-1.8,0.8-2C0.6-2.2,0.3-2.3-0.1-2.3L-1.1-2.3z"/>
</symbol>
<symbol  id="g" viewBox="-2.4 -2.9 4.8 5.7">
	<path d="M2.4-2.6v1.4C2.2-1.3,1.9-1.4,1.7-1.5C1.5-1.6,1.2-1.6,0.9-1.6c-0.5,0-0.9,0.1-1.1,0.4C-0.5-0.9-0.6-0.5-0.6,0
		c0,0.5,0.1,0.9,0.4,1.2c0.3,0.3,0.6,0.4,1.1,0.4c0.3,0,0.5,0,0.8-0.1C2,1.4,2.2,1.3,2.4,1.1v1.4C2.1,2.7,1.9,2.7,1.6,2.8
		C1.3,2.8,1,2.9,0.7,2.9c-1,0-1.8-0.2-2.3-0.8C-2.1,1.6-2.4,0.9-2.4,0c0-0.9,0.3-1.6,0.8-2.1C-1-2.6-0.3-2.9,0.7-2.9
		c0.3,0,0.6,0,0.8,0.1C1.9-2.7,2.1-2.7,2.4-2.6L2.4-2.6z"/>
</symbol>
<symbol  id="h" viewBox="-3.8 -3.6 7.6 7.3">
	<path d="M-3.8-3.6h1.9L0,1.7l1.9-5.4h1.9L1.1,3.6h-2.2L-3.8-3.6z"/>
</symbol>
<symbol  id="i" viewBox="-3.1 -3.8 6.2 7.6">
	<path d="M-3.1-3.8h1.8l1.5,3.7l1.2-3.7h1.8l-2.3,6C0.6,2.8,0.3,3.2,0,3.5c-0.3,0.2-0.7,0.4-1.2,0.4h-1V2.7h0.5c0.3,0,0.5,0,0.6-0.1
		C-0.9,2.4-0.8,2.3-0.7,2l0-0.2L-3.1-3.8z"/>
</symbol>
<symbol  id="j" viewBox="-2.9 -3.9 5.9 7.7">
	<path d="M0,2.6c0.4,0,0.7-0.1,0.9-0.4C1,1.9,1.1,1.5,1.1,1c0-0.5-0.1-0.9-0.3-1.2C0.6-0.5,0.4-0.6,0-0.6s-0.7,0.1-0.9,0.4
		C-1.1,0.1-1.2,0.5-1.2,1c0,0.5,0.1,0.9,0.3,1.2C-0.7,2.5-0.4,2.6,0,2.6L0,2.6z M-1.2-0.9c0.2-0.3,0.5-0.5,0.8-0.7
		c0.3-0.2,0.6-0.2,1-0.2c0.7,0,1.2,0.3,1.6,0.8C2.7-0.5,2.9,0.1,2.9,1S2.7,2.5,2.3,3.1c-0.4,0.5-1,0.8-1.6,0.8c-0.4,0-0.7-0.1-1-0.2
		c-0.3-0.2-0.6-0.4-0.8-0.7v0.8h-1.8v-7.6h1.8L-1.2-0.9z"/>
</symbol>
<symbol  id="k" viewBox="-2.9 -3.9 5.9 7.7">
	<path d="M1.2-0.9v-2.9h1.7v7.6H1.2V2.9C0.9,3.3,0.7,3.5,0.4,3.6c-0.3,0.1-0.6,0.2-1,0.2c-0.7,0-1.2-0.3-1.7-0.8
		C-2.7,2.5-2.9,1.8-2.9,1s0.2-1.5,0.6-2.1c0.4-0.5,1-0.8,1.7-0.8c0.4,0,0.7,0.1,1,0.2C0.7-1.5,0.9-1.3,1.2-0.9L1.2-0.9z M0,2.6
		c0.4,0,0.7-0.1,0.9-0.4C1.1,1.9,1.2,1.5,1.2,1c0-0.5-0.1-0.9-0.3-1.2C0.7-0.5,0.4-0.6,0-0.6c-0.4,0-0.6,0.1-0.8,0.4
		C-1,0.1-1.1,0.5-1.1,1c0,0.5,0.1,0.9,0.3,1.2C-0.6,2.5-0.3,2.6,0,2.6z"/>
</symbol>
<symbol  id="l" viewBox="-2.8 -2.9 5.5 5.7">
	<path d="M0.1,0.3c-0.4,0-0.6,0.1-0.8,0.2S-1,0.8-1,1c0,0.2,0.1,0.4,0.2,0.5c0.2,0.1,0.4,0.2,0.6,0.2c0.3,0,0.6-0.1,0.8-0.4
		C0.9,1.1,1,0.8,1,0.5V0.3L0.1,0.3z M2.8-0.4v3.1H1V1.9C0.8,2.3,0.5,2.5,0.2,2.6c-0.3,0.1-0.6,0.2-1.1,0.2c-0.6,0-1-0.2-1.4-0.5
		c-0.3-0.3-0.5-0.8-0.5-1.3c0-0.6,0.2-1.1,0.7-1.4C-1.7-0.6-1-0.8,0-0.8h1v-0.1c0-0.3-0.1-0.5-0.3-0.6c-0.2-0.1-0.6-0.2-1-0.2
		c-0.4,0-0.7,0-1,0.1C-1.7-1.5-2-1.4-2.3-1.3v-1.3c0.4-0.1,0.7-0.1,1.1-0.2C-0.8-2.8-0.4-2.9,0-2.9c1,0,1.7,0.2,2.1,0.6
		C2.5-1.9,2.8-1.3,2.8-0.4L2.8-0.4z"/>
</symbol>
<symbol  id="m" viewBox="-1.5 -4.9 2.9 9.8">
	<path d="M-0.3-2.8h1.8v5.4c0,0.7-0.2,1.3-0.5,1.7C0.6,4.7,0.1,4.9-0.6,4.9h-0.9V3.7h0.3c0.3,0,0.6-0.1,0.7-0.2
		c0.1-0.1,0.2-0.4,0.2-0.9L-0.3-2.8z M-0.3-4.9h1.8v1.4h-1.8V-4.9z"/>
</symbol>
<symbol  id="n" viewBox="-2.7 -2.8 5.5 5.6">
	<path d="M-2.7,0.5v-3.3H-1v0.5C-1-2-1-1.6-1-1.1v0.9c0,0.4,0,0.8,0,1c0,0.2,0.1,0.3,0.1,0.4c0.1,0.1,0.1,0.2,0.3,0.2
		c0.1,0.1,0.3,0.1,0.4,0.1c0.4,0,0.6-0.1,0.9-0.4C0.9,0.8,1,0.4,1-0.1v-2.7h1.8v5.5H1V1.9C0.7,2.2,0.5,2.4,0.2,2.6
		c-0.3,0.1-0.6,0.2-1,0.2c-0.6,0-1.1-0.2-1.5-0.6C-2.6,1.8-2.7,1.3-2.7,0.5L-2.7,0.5z"/>
</symbol>
<symbol  id="o" viewBox="-3.3 -3.6 6.5 7.3">
	<path d="M-3.3-3.6h2.1l2.7,5v-5h1.8v7.3H1.2l-2.7-5v5h-1.8L-3.3-3.6z"/>
</symbol>
<symbol  id="p" viewBox="-2.8 -3.8 5.5 7.6">
	<path d="M2.7,0.5v3.3H1V1.2c0-0.5,0-0.8,0-1c0-0.2-0.1-0.3-0.1-0.4C0.8-0.2,0.7-0.3,0.6-0.4C0.4-0.5,0.3-0.5,0.2-0.5
		c-0.4,0-0.7,0.1-0.9,0.4C-0.9,0.2-1,0.6-1,1.1v2.7h-1.8v-7.6H-1v2.9c0.3-0.3,0.5-0.5,0.8-0.7c0.3-0.2,0.6-0.2,1-0.2
		c0.6,0,1.1,0.2,1.4,0.6C2.6-0.8,2.8-0.3,2.7,0.5L2.7,0.5z"/>
</symbol>
<symbol  id="q" viewBox="-4.4 -2.8 8.8 5.6">
	<path d="M0.7-1.8c0.2-0.3,0.5-0.6,0.8-0.8c0.3-0.2,0.6-0.3,1-0.3c0.6,0,1.1,0.2,1.4,0.6c0.3,0.4,0.5,0.9,0.5,1.7v3.3H2.6v-2.9v-0.1
		v-0.2c0-0.4-0.1-0.7-0.2-0.8C2.4-1.4,2.2-1.5,1.9-1.5c-0.3,0-0.6,0.1-0.8,0.4C1-0.8,0.9-0.4,0.9,0.1v2.7h-1.8v-2.9
		c0-0.6-0.1-1-0.2-1.2c-0.1-0.2-0.3-0.3-0.5-0.3c-0.3,0-0.6,0.1-0.8,0.4c-0.2,0.3-0.3,0.7-0.3,1.2v2.7h-1.8v-5.5h1.8v0.8
		c0.2-0.3,0.5-0.5,0.7-0.7S-1.3-2.8-1-2.8c0.4,0,0.7,0.1,1,0.3C0.3-2.3,0.5-2.1,0.7-1.8L0.7-1.8z"/>
</symbol>
<symbol  id="r" viewBox="-2.1 -3.8 4.2 7.6">
	<path d="M2.1-3.8v1.1h-1c-0.2,0-0.4,0-0.5,0.1C0.5-2.4,0.5-2.3,0.5-2v0.4H2v1.2H0.5v4.2h-1.8v-4.2h-0.9v-1.2h0.9V-2
		c0-0.6,0.2-1,0.5-1.3c0.3-0.3,0.8-0.4,1.5-0.4L2.1-3.8z"/>
</symbol>
<symbol  id="s" viewBox="-0.9 -3.8 1.8 7.6">
	<path d="M-0.9-1.7h1.8v5.5h-1.8V-1.7z M-0.9-3.8h1.8v1.4h-1.8V-3.8z"/>
</symbol>
<symbol  id="t" viewBox="-2.5 -2.9 5 5.7">
	<path d="M2.1-2.6v1.3C1.7-1.4,1.4-1.5,1-1.6C0.7-1.7,0.3-1.7,0-1.7c-0.3,0-0.6,0-0.8,0.1c-0.2,0.1-0.2,0.2-0.2,0.4
		c0,0.1,0.1,0.3,0.2,0.3c0.1,0.1,0.3,0.1,0.7,0.2l0.3,0C1.1-0.6,1.7-0.4,2-0.1c0.3,0.3,0.5,0.7,0.5,1.2c0,0.6-0.2,1-0.7,1.3
		C1.4,2.7,0.8,2.9-0.1,2.9c-0.4,0-0.7,0-1.1-0.1C-1.6,2.7-2,2.6-2.4,2.5V1.2c0.4,0.2,0.7,0.3,1.1,0.4C-1,1.7-0.6,1.7-0.2,1.7
		c0.3,0,0.6,0,0.8-0.1c0.2-0.1,0.3-0.2,0.3-0.4c0-0.2-0.1-0.3-0.2-0.3C0.5,0.7,0.3,0.7-0.1,0.6l-0.3,0C-1.2,0.5-1.7,0.3-2,0
		c-0.3-0.3-0.5-0.7-0.5-1.2c0-0.6,0.2-1,0.6-1.3c0.4-0.3,1-0.4,1.8-0.4c0.3,0,0.7,0,1,0.1C1.3-2.7,1.7-2.7,2.1-2.6L2.1-2.6z"/>
</symbol>
<symbol  id="u" viewBox="-3.1 -3.8 6.2 7.6">
	<path d="M3.1,3.2C2.8,3.4,2.4,3.6,2,3.6C1.6,3.7,1.3,3.8,0.9,3.8c-1.2,0-2.2-0.3-2.9-1C-2.7,2.1-3.1,1.2-3.1,0
		c0-1.2,0.4-2.1,1.1-2.8c0.7-0.7,1.7-1,2.9-1c0.4,0,0.8,0,1.2,0.1c0.4,0.1,0.7,0.2,1.1,0.4v1.5C2.7-2,2.4-2.1,2.1-2.2
		C1.7-2.4,1.4-2.4,1-2.4c-0.7,0-1.2,0.2-1.6,0.7C-1-1.3-1.2-0.7-1.2,0S-1,1.3-0.6,1.8C-0.2,2.2,0.3,2.4,1,2.4c0.4,0,0.7-0.1,1.1-0.2
		c0.3-0.1,0.7-0.3,1-0.5V3.2z"/>
</symbol>
<g>
	<path d="M271.9,161.7c-13.8-1.4-28,8.3-26.6,22.8c0,0.3,0.2,0.4,0.4,0.5c-1.1,13.4,4.1,31.6,18.4,35.2c16.4,4.2,28.8-9.2,29.9-24.5
		C294.9,181.8,287.7,163.3,271.9,161.7L271.9,161.7z M268.4,215.5c12.1-14.9,7.4-33.2-3.5-48.2c-0.4-0.6-1.5-0.2-1.2,0.6
		c6.3,16.8,15.5,30.9,3.1,47.5c-19-2.8-16.7-33.5-20.1-33.2c1.1-9.5,9.4-14.1,18-15.8C292.9,161,299.4,217.4,268.4,215.5
		L268.4,215.5z"/>
	<path d="M408.4,267.6c-5.2-1.6-11.7-2.1-17.3-0.7c-0.4-0.2-0.8,0-1.1,0.3c-1.1,0.3-2.1,0.7-3.1,1.1c-1.3-1-2.1,0.5-3.1,1.9
		c-2.2,1.7-3.9,4-4.7,6.9c-9.8,16-14.2,35.4,5.6,46.6C435.7,352.6,449.9,280.4,408.4,267.6L408.4,267.6z M377.7,308.7
		c-5.4-11.5,3.6-25.3,8.6-36.2c1.4-0.5,2.9-0.9,4.6-1c4.9,10.7,12.3,19.8,10.5,32.6c-0.9,6.4-4.3,12-5.8,18.2
		C387.8,319.8,380.5,314.7,377.7,308.7L377.7,308.7z M397.4,322.9c6.2-11.6,16.1-26.6-2.4-51.4c7.9,0.4,16.8,3.7,20.6,6.7
		C434.5,293.2,429.7,331.9,397.4,322.9L397.4,322.9z"/>
	<path d="M158.9,285.7c-16.7,1.3-23.4,20.8-14.2,33.2c3,10.8,10.9,19.8,23.1,23.8c16.8,5.5,31.8-2.2,29.1-21.2
		C194.5,304.5,177.6,284.3,158.9,285.7z M143.7,313.7c-1-3.4-0.9-6.9,0.1-10.1C143.4,307,143.3,310.4,143.7,313.7z M159.9,333.5
		c-12.1-8.4-14.1-22.4-12.7-36.1c0.6-0.7,1.3-1.4,2-2.1c4.6,4.5,10.7,8.2,14.2,13.7c4.5,7.1,5.7,15.7,8.4,23.5
		c0.2,0.6,1.3,0.5,1.2-0.2c-2.3-28.8-12.5-29.4-23-37.7c4.7-3.8,11.4-5.4,18.3-2.7c12.8,5.1,23.7,19.4,23.9,33.4
		C192.6,344.1,171.1,341.3,159.9,333.5L159.9,333.5z"/>
	<path d="M256.3,254.7c-8-3.6-22.5-2.1-22.8,8.3c-0.3,0.1-0.7,0.3-1.1,0.5c-0.7,0.4-0.1,1.5,0.6,1.3c0.2-0.1,0.3-0.1,0.5-0.1
		c0,0.1,0,0.2,0,0.3c0.1,0.8,1.5,1,1.5,0.1c0-0.2,0.1-0.4,0.1-0.6c11.5-0.5,16.4,22.6,19.6,31.4c-7.1,0.5-14.7-4.8-18.5-10.5
		c-5.7-8.5-5.8-18.4-4.5-28.1c0.1-1.1-1.7-1.7-2.2-0.7c-5.7,11.9-1.3,28.7,8.7,37.1c9.8,8.2,25.1,7.8,30.8-4.7
		C274.8,276.6,268.8,260.3,256.3,254.7L256.3,254.7z M256.6,295.6c-2-9.9-7.1-36.1-20.7-33.3c2.2-4.8,9-5.6,13.6-4.8
		C267.3,260.4,273.9,291.7,256.6,295.6L256.6,295.6z"/>
	<path d="M345.4,364.1c-16.4-3-26.7,10.8-25.1,24.6c-17.7,24.2,17.6,60.1,47.6,48.4c0.2,0.5,0.3,0.9,0.5,1.4c0.4,1,1.8,0.5,1.7-0.5
		c-0.1-0.6-0.2-1.2-0.2-1.9c6.9-3.4,12-9.8,12.8-19.5C384.4,396.4,366,367.8,345.4,364.1L345.4,364.1z M322,395.1
		c0.7,1.7,1.6,3.3,2.7,4.8c0.2,0.3,0.6-0.1,0.4-0.3c-1.2-1.7-2.1-3.6-2.7-5.6c1.2-3.1,3.1-6.2,5.9-9.4c1-1.2-0.6-3.2-1.9-2.2
		c-1.9,1.5-3.6,3.1-5,4.8c0-3.7,1-7.4,2.9-10.6c0.9,0.9,16.2,7.9,27.8,24.5c6.5,9.4,10,20,13.9,30.6
		C347.7,438.5,313.9,418.9,322,395.1L322,395.1z M369.1,430.2c-4.6-24.6-20.9-44.5-43.8-55C347.4,345.9,396.1,413.5,369.1,430.2z"/>
	<path d="M138.2,384.4c-7-5.3-15.7-7.6-24.3-5.6c-10.5,2.4-15.3,10.6-19.9,19.6c0.6-2.7,1.4-5.4,2.3-8c0.5-1.4-1.3-3.1-2.5-1.6
		c-10.6,14.1-10.7,37.4,3,49.6c13.6,12.2,35.9,9.3,48.2-3.3C159.7,420.1,154.1,396.4,138.2,384.4L138.2,384.4z M125.6,438.2
		c-20.2,4.4-37.6-9.8-32-37.9c0.4,0.9,1.9,1.3,2.6,0.1c2-3.4,4.3-6.6,7-9.3C121.4,398.9,130.5,419.6,125.6,438.2L125.6,438.2z
		 M131.3,436.4c7.1-18.8-7.4-41.4-26-47.3C133.6,364.7,168.2,421.1,131.3,436.4z"/>
	<path d="M93.2,263c13.9,6.2,21.7-8.7,21.7-20.4c-0.1-27.1-39.2-36.9-37.9-9.9c0,0.5,0.8,0.6,0.8,0c0-1,0.2-2,0.3-2.9
		C77.8,241.8,82.1,258,93.2,263L93.2,263z M79.2,226.1c7.7-16.9,40-0.1,30.7,26.3c2-12.3-10.9-27.1-22.5-29.2
		c-1.2-0.2-1.5,1.6-0.5,2c10.9,4.4,18.2,16.6,20.7,27.6c0.2,0.8,1.2,1.1,1.8,0.7c-0.9,2.1-2.2,4-4,5.4c-5.9,4.4-12.8,0.9-16.9-4
		c-6.2-7.5-9.2-18.7-9-28.4C79.5,226.4,79.4,226.2,79.2,226.1L79.2,226.1z"/>
	<path d="M499.4,301.3c-1.6,8.1-0.8,13.4-8.4,18.9c-3.2,2.3-6.1,3.9-7.8,7.7c-4,8.5,1.3,15.7,8.4,20.2c0.6,0.4,1.1-0.5,0.5-0.9
		c-10.3-7.3-10.6-17.8-0.1-25c3.3-2.3,6.1-3.9,7.8-7.7c1.6-3.7,0.6-7.7,1.8-11.3c4-12.2,14.7-4.8,18.2,1.8c1.8,3.5,2.5,7.5,3.4,11.4
		c0.2,1,1.7,1.1,1.9,0C527.2,295.3,502.6,285.8,499.4,301.3L499.4,301.3z"/>
	<path d="M341.8,196.8c0.1,0.5,0.6,0.7,1,0.5c4,4.1,10.7,5.6,13.8-0.7c3.1-6.3-1.2-17-5.9-21.5c-7.2-6.9-8.9,10.8-9,18.6
		c-0.1-0.1-0.3-0.3-0.4-0.4c-0.4-0.4-1.9-0.3,0.4,2.8C341.7,196.3,341.8,196.6,341.8,196.8L341.8,196.8z M347.5,175.2
		c3.7-0.3,13.3,21.6,3,23.3c-2.8,0.5-5.4-1.5-7.5-3.6C342.7,190.9,343.5,175.6,347.5,175.2L347.5,175.2z"/>
	<path d="M315.1,266c5.9-1.9,7.2,7.1,7.5,11.2c0.1,0.8,1.3,0.9,1.4,0.1c0.6-6-1.2-16.8-9.7-13.4C313.1,264.4,313.9,266.5,315.1,266
		L315.1,266z"/>
	<path d="M102,321c-0.4,0-0.8,0.2-0.7,0.6c0.9,5.7,10,8.8,11,1.5c0.4-2.9-0.9-6.1-4.2-6C105.8,317.3,103.3,319.1,102,321L102,321z
		 M109.4,323.2c-1,3.5-5.8,0.2-6.9-1.8C104.7,319.4,110.7,318.5,109.4,323.2z"/>
	<path d="M169.9,393.4c-0.2,0.1-1.8,1.3-2.1,1c-1.5-1.7-3.1,1.9-0.9,2c1.5,0,2.7-1.3,3.4-2.6C170.4,393.5,170.2,393.3,169.9,393.4
		L169.9,393.4z"/>
	<path d="M165.5,394.5c0.1,0,0.1-0.2,0-0.2S165.3,394.5,165.5,394.5z"/>
	<path d="M208.5,283.4c-4.3-0.6-6,1.6-4.8,5.2c0.7,2.1,4.3,0.5,3.1-1.4c-0.9-1.6-0.2-2,1.7-2.5C209.2,284.5,209.2,283.5,208.5,283.4
		L208.5,283.4z"/>
	<path d="M315.7,344c-7.1-7-14.5,3.5-13.2,10.7c0.4,1.9,3.3,1.8,3.1-0.3c-0.2-2.5,0.7-5.2,2.3-7.1c1.9-2.1,5.2-1.7,6.1,1.2
		c1.3,4.3-4.6,10.2-6.9,13.1c-0.7,0.9,0.5,1.9,1.3,1.3C313.8,359.2,322.2,350.4,315.7,344L315.7,344z"/>
	<path d="M467,271.9c-2.1,3.5-4.9,4.4-8.8,3.3c-2.6-0.8-6.1-2.7-6.4-5.8c-0.2-2.2-3.8-3-4.2-0.4c-1.9,12.9,22.7,17.1,21.7,3.6
		C469.3,271.4,467.7,270.8,467,271.9L467,271.9z"/>
	<path d="M120.7,265.3c1.4,0.3,2.6,0.9,3.6,2c0.8,0.8,1.6,1.6,2.2,2.6c0.4,0.6,1.4,0.2,1.4-0.5c-0.5-3.8-3.2-6-6.8-6.6
		C119.7,262.7,119.3,265.1,120.7,265.3L120.7,265.3z"/>
	<path d="M174,406.7c-1.6-0.7-3.3,0.6-3.3,2.3c0,1.8,1.7,2.7,3.3,2.2c0.7-0.2,1.3-0.3,2.1-0.3c1,0,1.6-1.1,0.9-1.9
		C176.2,408,175.2,407.2,174,406.7L174,406.7z"/>
	<path d="M115.8,471.8c-0.3,0.2-0.7,0.7-1.1,0.7c-1.3,0.1-1.9,1.8-1,2.7c0.8,0.8,2.6,0.5,2.7-0.9c0-0.5,0.5-0.9,0.7-1.2
		C117.9,472.2,116.7,471.1,115.8,471.8L115.8,471.8z"/>
	<path d="M469.3,211c0.7-0.5,0.7-1.8-0.4-1.9c-0.6,0-1.3-0.1-1.9-0.2c-20.5-19.3-7.2-41.5-24.9-74.9c-8.9-16.9-21.9-32-36.7-44.1
		C393.6,80.2,382.6,75.1,367,76c-14.5,0.8-36.7,8.5-45.7-7.2c-9.1-15.8-6-36-21-48.9c-11.3-9.7-27.9-9.2-41.8-7.5
		c-34.9,4.3-56.9,28.5-75.6,56.2C171,86,158.2,105,156.6,126.6c-1.2,16.1,2.4,33.4-2.3,49.1c-6.5,21.7-29.6-3-38.4-10.8
		c-10.9-9.7-24.8-22.1-40.5-19.5c-17.1,2.9-33.9,19.3-43.1,33.4c-10.1,15.4-15.3,33.9-16,52.3c-2.2,55.4,31.8,71.5,30.2,93.5
		c-0.6,9-10.6,13.4-15,20.5c-13.7,21.9-1.8,65.6,33.3,88.2c-17.2,21.5-6,41.7,17.5,52.8c30.7,14.5,64.3-1.3,86.5-23.4
		c24-23.7,44.2-51.5,78-61.9c7.5-2.3,16.4-3.8,23.8-0.4c16.7,7.6,7.7,36.7,20.3,54.2c15.3,21.2,52,27.5,76.3,27.9
		c31.5,0.5,58.7-16.2,58.5-50.2c-0.1-17.2-4.2-37.6,7.9-52c6.9-8.2,17.6-11.4,27.7-13.7c21-4.6,44.5-5.2,60.4-21.7
		c17.4-18,16.7-42,5.5-61.9C520.8,246.8,483.1,222.7,469.3,211L469.3,211z M43,339.5c8.2-7.8,10.2-15.3,6.3-26.3
		c-6.9-19.7-21.1-34.8-25.5-55.8c-8.1-38.5,5.8-84.3,42.8-102.9c20-10,36.5,7.5,50.5,20c7.5,6.8,18.9,18.3,30.2,17.1
		c11.3-1.3,14.1-15.1,15.1-24.3c1.7-16.3-1.6-33.2,1.9-49.3c4.6-21.1,19.7-40.9,32.3-58c10.8-14.6,23.5-28.3,40.5-35.6
		c14.7-6.3,36.2-10.2,51.6-4.3c20.5,7.9,18,33.2,26.3,49.8c13.7,27.7,48,5.5,70.3,13.4c17,6,40.4,34.3,49.6,50.8
		c17.2,31,6.8,50.2,23.2,70.8c0.6,3.6,2.9,5.7,5.9,6.4c10.1,9.6,41.3,28.3,55.5,60.4c-28.2-33.8-55.9-33.2-73.1-51.4
		c2.7,1,6.3,0.6,8.4-1.3c0.5-0.5,0.5-1.6-0.3-1.8c-3.6-0.8-8.4,1.1-8.9-4c-0.2-2.1-3.8-1.9-3.7,0.3c0,0.4,0.1,0.8,0.1,1.1
		c-13.1-21.8,5.4-41-24.9-75.9c-25.3-29.2-44.4-27.7-77.1-13.7c-15.9,6.8-35.8,13.6-48.1-3.1c-7.4-10-10.3-22.7-18.6-32.1
		c-22.7-25.5-57.7,4.4-72,24.4c-19.2,26.9-18.6,60.3-2.5,88.4c7.1,12.5,23.5,29.9,11.1,44.6c-7.6,9-18.8,9.6-29.5,6.5
		c2.8-2.3,3.4-7.2,3.2-10.5c-0.2-2.3-3.7-1.7-3.5,0.6c0.1,1.9-0.1,3.8-0.8,5.5c-0.5,1.2-1.1,2.3-1.5,3.5
		c-29.3-10-34.4-30.4-47.3-44.7c-9.1-10-20.9-14.1-34.4-12.1c-30.8,4.4-51.6,36.3-47.6,66.3c4.7,34.6,46.4,67.6,26.2,90.2
		c-8.6,9.5-21.7,7.7-23.3,22.6c-1.2,11.3,1.8,23.8,6.1,34.1c2.9,7.1,6.9,13.8,12.8,18.4c-1.3,1.3-2.6,2.7-3.8,4.1
		C39,411.3,14,367.3,43,339.5L43,339.5z M418.4,154.6c-3.6,6.3-8.5,11.4-16.6,10.5c-6.9-0.7-11.8-5.8-16.1-11.1
		c-11.2-13.6-9.6-22.7-13.1-29.8c0-0.1-0.1-0.1-0.2-0.2C391.3,123.9,408.6,137.5,418.4,154.6L418.4,154.6z M248.7,89
		c-0.4,8-1.9,15.3-8.5,21.3c-8.6,7.8-19.2,5.8-29.6,4.6c6.3-7.8,14.2-14.5,23.2-19.9C238.2,92.4,243.4,89.8,248.7,89L248.7,89z
		 M426.4,374.9c-2.2-7.1-6.4-17.6-13.3-19.8c1.4-4.6,4-8.6,8.4-8.3c4.4,0.3,8.7,6.8,11.1,9.8c2.1,2.6,4.6,6.2,7.8,7.7
		C435.1,366.9,430.3,370.4,426.4,374.9L426.4,374.9z M515.8,337.3c-17.2,20-50.2,16-72.9,25.8c-3.8-7.8-17.3-26.3-27.2-17.7
		c-2.6,2.3-4.3,5.5-5.4,9.1c-0.1,0-0.3,0-0.4,0c-0.6,0-1,0.9-0.4,1.3c0.2,0.1,0.3,0.2,0.4,0.3c-2.3,10,0.5,22.6,6.4,28.8
		c0.7,0.7,1.7-0.5,1-1.2c-4.6-5-5.8-12.6-5.7-19.1c0-1.7,0.2-4,0.7-6.5c7,5.9,8.3,11.2,12.6,18.5c-13,17.1-7.4,40.2-9.1,61.1
		c-3.2,40.1-51,37.9-79.8,31.2c-14.3-3.4-33.2-9.1-40.3-23.2c-5.4-10.7-4.1-23.5-7.3-34.9c-6.4-22.7-28.5-24-47.5-17.5
		c3.4-27.6-11.6-26.2-17.6-38.2c1.9-1.7,4.3-2.8,7.3-3.4c20.6-3.5,22,23.8,25.8,37.3c0.3,1,2,1.2,2-0.1c0.3-18.2-5-51.1-31.7-41.1
		c-19,7.1-13.7,34.8-6.3,48.5c0.7,1.3,2.7,0.3,2.1-1.1c-4.5-9.3-8.4-29-0.7-38.4c2.8,6.3,8.3,9.7,12.1,15.4
		c4.2,6.4,3.5,14.7,3.9,22.3c-50.8,20.1-69.1,70.8-109.1,84.4c-19.9,6.8-43.8,4.5-58.3-12.2c-10.9-12.6-3-25.3,6.5-35.4
		c1.5,0.6,1.9-0.8,1.5-1.6c1.6-1.6,3.2-3.2,4.8-4.6c3.5-3.2-1.8-8-5.3-5c-2,1.7-4,3.6-6,5.5c-9.9-7.7-14.1-22.3-16-34.1
		c-1-6.2-2.5-15.7,0.8-21.3c3-5.1,9.8-5.2,14.6-7.7c25.1-13,13.1-41.7,2.3-60c-8.6-14.6-18.3-29.3-18.9-46.9
		c-1.3-42,47.2-69.8,70.8-41.8c7.8,9.3,12.6,20.6,21.5,29.1c16.8,16.1,52.8,31.2,69.9,7.1c16-22.6-12.2-46.9-19.2-66.8
		c-8.4-23.8-2.8-47.8,11.4-66.5c11.7,3.4,24.6,4.4,34.1-4.7c5.4-5.2,10.9-15.3,9.6-23.5c0.8,0,1.6,0.1,2.5,0.2
		c17.4,2.7,20.2,29.4,33.6,42.8c24.7,24.7,56.8-6.4,82.2-7.6c-0.1,0.1-0.1,0.1-0.2,0.2c-6.9,14.5,10.3,36.4,21.6,44.1
		c9.5,6.4,23.7,2.1,29.4-7.4c9.8,22.4,1.1,38.8,10.9,55.8c6.4,11.2,17.4,19.3,28.8,24.8c24.4,11.8,51.5,26.8,61.8,53.8
		C528.7,309.8,525.9,325.5,515.8,337.3L515.8,337.3z"/>
	<path d="M227.4,47.3c3.2-9.2,12-17.8,20.3-8c2.7,3.2,10.3,22.3,20.7,10.5c0.7-0.8-0.4-1.8-1.3-1.3c-10.9,7.2-14.4-12.4-23.2-15.7
		c-9.5-3.6-16.1,6.1-18.7,13.8C224.9,47.9,226.9,48.6,227.4,47.3L227.4,47.3z"/>
	<path d="M298.7,75.4c4.7,0.1,8.7,1.5,12.5,4.2c2.5,1.8,4.6,4.3,7.6,5.4c1,0.4,2.6-0.5,2-1.7c-3.6-7.6-14.1-12-22-11.9
		C296.3,71.4,296.2,75.3,298.7,75.4L298.7,75.4z"/>
	<path d="M171.2,121.7c0.1,0.1,0.2-0.1,0.1-0.1l-1.1-1.1c-0.1-0.1-0.2,0.1-0.1,0.1C170.4,120.9,170.8,121.3,171.2,121.7z"/>
	<path d="M178.6,190.4c-2.8-12.1-5.7-23-2.4-35.3c0.1-0.5-0.6-0.9-0.8-0.4c-6.2,11.2-3,25.2,2.2,36.1
		C177.9,191.4,178.8,191,178.6,190.4L178.6,190.4z"/>
	<path d="M71.5,179.8c4.4-1.6,7.9-1.3,11.8,1.6c1.2,0.9,2.7-1.1,1.6-2c-3.7-3.2-11.2-6.5-14.2-0.6C70.3,179.3,70.9,180,71.5,179.8
		L71.5,179.8z"/>
	<path d="M33.9,195.3c-6.7,9.2-9.2,24.6-4.1,35.1c0.6,1.2,2.8,0.5,2.6-0.8c-1.4-11.1-2.1-22.7,4.9-32.3
		C38.7,195.3,35.4,193.3,33.9,195.3L33.9,195.3z"/>
	<path d="M65.4,333.4c0.2,1.5,2.4,1,2.5-0.3c0.3-4,1.6-13.2-4.8-13.3c-0.4,0-0.7,0.4-0.6,0.8C64.2,324.8,64.8,329,65.4,333.4
		L65.4,333.4z"/>
	<path d="M51.2,393.5c-1.8-0.6-3.8-1-5.5-1.9c-1.8-1-2.9-2.7-4.4-3.9c-1.2-1-2.9,0.3-3,1.6c-0.3,4,6.9,9.3,13,7.4
		C52.6,396.3,52.5,394,51.2,393.5L51.2,393.5z"/>
	<path d="M334.4,111.5c7,0.6,15-1.5,19.1-7.7c0.5-0.8-0.4-2-1.3-1.3c-5.3,4.7-10.7,6.9-17.9,6.2
		C332.6,108.6,332.7,111.4,334.4,111.5L334.4,111.5z"/>
	<path d="M419,123c0.3,0.5,1.1,0.2,0.9-0.4c-1.5-6-3.8-11-9.6-13.8c-0.2-0.1-0.4,0.2-0.2,0.3C414.6,112.7,416.1,118.3,419,123
		L419,123z"/>
	
		<use xlink:href="#u"  width="6.2" height="7.6" x="-3.1" y="-3.8" transform="matrix(1 0 0 1 -0.75 557.8594)" style="overflow:visible;"/>
	
		<use xlink:href="#d"  width="4.1" height="5.6" x="-2" y="-2.8" transform="matrix(1 0 0 1 5.8633 558.7031)" style="overflow:visible;"/>
	
		<use xlink:href="#b"  width="5.9" height="5.7" x="-2.9" y="-2.9" transform="matrix(1 0 0 1 11.2852 558.7734)" style="overflow:visible;"/>
	
		<use xlink:href="#l"  width="5.5" height="5.7" x="-2.8" y="-2.9" transform="matrix(1 0 0 1 17.9063 558.7734)" style="overflow:visible;"/>
	
		<use xlink:href="#a"  width="4.4" height="7" x="-2.2" y="-3.5" transform="matrix(1 0 0 1 23.7852 557.9922)" style="overflow:visible;"/>
	<g>
		<defs>
			<rect id="SVGID_1_" x="26.2" y="561.5" width="700" height="700"/>
		</defs>
		<clipPath id="SVGID_00000124120089916308392760000010410429379393323928_">
			<use xlink:href="#SVGID_1_"  style="overflow:visible;"/>
		</clipPath>
		<g style="clip-path:url(#SVGID_00000124120089916308392760000010410429379393323928_);">
			
				<use xlink:href="#b"  width="5.9" height="5.7" x="-2.9" y="-2.9" transform="matrix(1 0 0 1 29.5977 558.7734)" style="overflow:visible;"/>
		</g>
	</g>
	
		<use xlink:href="#k"  width="5.9" height="7.7" x="-2.9" y="-3.9" transform="matrix(1 0 0 1 36.3945 557.7734)" style="overflow:visible;"/>
	
		<use xlink:href="#j"  width="5.9" height="7.7" x="-2.9" y="-3.9" transform="matrix(1 0 0 1 47.4258 557.7734)" style="overflow:visible;"/>
	
		<use xlink:href="#i"  width="6.2" height="7.6" x="-3.1" y="-3.8" transform="matrix(1 0 0 1 54.043 559.8437)" style="overflow:visible;"/>
	
		<use xlink:href="#h"  width="7.6" height="7.3" x="-3.8" y="-3.6" transform="matrix(1 0 0 1 64.6758 557.8516)" style="overflow:visible;"/>
	<g>
		<defs>
			<rect id="SVGID_00000145745290121119111030000006761069782445732268_" x="68.5" y="561.5" width="700" height="700"/>
		</defs>
		<clipPath id="SVGID_00000127027866121470545290000018244926107732405154_">
			<use xlink:href="#SVGID_00000145745290121119111030000006761069782445732268_"  style="overflow:visible;"/>
		</clipPath>
		<g style="clip-path:url(#SVGID_00000127027866121470545290000018244926107732405154_);">
			
				<use xlink:href="#b"  width="5.9" height="5.7" x="-2.9" y="-2.9" transform="matrix(1 0 0 1 71.9141 558.7734)" style="overflow:visible;"/>
		</g>
	</g>
	
		<use xlink:href="#g"  width="4.8" height="5.7" x="-2.4" y="-2.9" transform="matrix(1 0 0 1 78.1836 558.7734)" style="overflow:visible;"/>
	<g>
		<defs>
			<rect id="SVGID_00000155138757077310897070000005275291463268513722_" x="81.3" y="561.5" width="700" height="700"/>
		</defs>
		<clipPath id="SVGID_00000147914208023808556860000003388289602665476784_">
			<use xlink:href="#SVGID_00000155138757077310897070000005275291463268513722_"  style="overflow:visible;"/>
		</clipPath>
		<g style="clip-path:url(#SVGID_00000147914208023808556860000003388289602665476784_);">
			
				<use xlink:href="#a"  width="4.4" height="7" x="-2.2" y="-3.5" transform="matrix(1 0 0 1 83.5938 557.9922)" style="overflow:visible;"/>
		</g>
	</g>
	
		<use xlink:href="#c"  width="6" height="5.7" x="-3" y="-2.9" transform="matrix(1 0 0 1 89.4766 558.7734)" style="overflow:visible;"/>
	<g>
		<defs>
			<rect id="SVGID_00000128442765281089724590000012699929304715920525_" x="92.9" y="561.5" width="700" height="700"/>
		</defs>
		<clipPath id="SVGID_00000121280256479735369810000005064403834093548726_">
			<use xlink:href="#SVGID_00000128442765281089724590000012699929304715920525_"  style="overflow:visible;"/>
		</clipPath>
		<g style="clip-path:url(#SVGID_00000121280256479735369810000005064403834093548726_);">
			
				<use xlink:href="#d"  width="4.1" height="5.6" x="-2" y="-2.8" transform="matrix(1 0 0 1 95.7851 558.7031)" style="overflow:visible;"/>
		</g>
	</g>
	
		<use xlink:href="#t"  width="5" height="5.7" x="-2.5" y="-2.9" transform="matrix(1 0 0 1 100.8398 558.7734)" style="overflow:visible;"/>
	
		<use xlink:href="#f"  width="6" height="7.3" x="-3" y="-3.6" transform="matrix(1 0 0 1 111.1953 557.8515)" style="overflow:visible;"/>
	<g>
		<defs>
			<rect id="SVGID_00000062171638307313745700000001310538983979859361_" x="114.6" y="561.5" width="700" height="700"/>
		</defs>
		<clipPath id="SVGID_00000017487318899037604450000000215102944183970194_">
			<use xlink:href="#SVGID_00000062171638307313745700000001310538983979859361_"  style="overflow:visible;"/>
		</clipPath>
		<g style="clip-path:url(#SVGID_00000017487318899037604450000000215102944183970194_);">
			
				<use xlink:href="#c"  width="6" height="5.7" x="-3" y="-2.9" transform="matrix(1 0 0 1 118.0391 558.7734)" style="overflow:visible;"/>
		</g>
	</g>
	
		<use xlink:href="#s"  width="1.8" height="7.6" x="-0.9" y="-3.8" transform="matrix(1 0 0 1 123.1914 557.7031)" style="overflow:visible;"/>
	
		<use xlink:href="#e"  width="5.5" height="5.6" x="-2.8" y="-2.8" transform="matrix(1 0 0 1 128.4962 558.7031)" style="overflow:visible;"/>
	<g>
		<defs>
			<rect id="SVGID_00000118360479305820435620000008801355585292215720_" x="132" y="561.5" width="700" height="700"/>
		</defs>
		<clipPath id="SVGID_00000091737916544022788530000016268157589450053818_">
			<use xlink:href="#SVGID_00000118360479305820435620000008801355585292215720_"  style="overflow:visible;"/>
		</clipPath>
		<g style="clip-path:url(#SVGID_00000091737916544022788530000016268157589450053818_);">
			
				<use xlink:href="#a"  width="4.4" height="7" x="-2.2" y="-3.5" transform="matrix(1 0 0 1 134.3555 557.9922)" style="overflow:visible;"/>
		</g>
	</g>
	
		<use xlink:href="#r"  width="4.2" height="7.6" x="-2.1" y="-3.8" transform="matrix(1 0 0 1 -2.0391 567.7031)" style="overflow:visible;"/>
	<g>
		<defs>
			<rect id="SVGID_00000106136185743365846250000001685570489008470931_" y="571.5" width="700" height="700"/>
		</defs>
		<clipPath id="SVGID_00000047026239590980331440000017388001849291309471_">
			<use xlink:href="#SVGID_00000106136185743365846250000001685570489008470931_"  style="overflow:visible;"/>
		</clipPath>
		<g style="clip-path:url(#SVGID_00000047026239590980331440000017388001849291309471_);">
			
				<use xlink:href="#d"  width="4.1" height="5.6" x="-2" y="-2.8" transform="matrix(1 0 0 1 2.875 568.7031)" style="overflow:visible;"/>
		</g>
	</g>
	<g>
		<defs>
			<rect id="SVGID_00000112608092576818323420000004063393485806116267_" x="4.9" y="571.5" width="700" height="700"/>
		</defs>
		<clipPath id="SVGID_00000164487228530422340850000003181930192542766740_">
			<use xlink:href="#SVGID_00000112608092576818323420000004063393485806116267_"  style="overflow:visible;"/>
		</clipPath>
		<g style="clip-path:url(#SVGID_00000164487228530422340850000003181930192542766740_);">
			
				<use xlink:href="#c"  width="6" height="5.7" x="-3" y="-2.9" transform="matrix(1 0 0 1 8.3672 568.7734)" style="overflow:visible;"/>
		</g>
	</g>
	
		<use xlink:href="#q"  width="8.8" height="5.6" x="-4.4" y="-2.8" transform="matrix(1 0 0 1 17.0273 568.7031)" style="overflow:visible;"/>
	<g>
		<defs>
			<rect id="SVGID_00000065785240255432120580000001345170474268638084_" x="25.7" y="571.5" width="700" height="700"/>
		</defs>
		<clipPath id="SVGID_00000083790801899271413640000012871318749678190015_">
			<use xlink:href="#SVGID_00000065785240255432120580000001345170474268638084_"  style="overflow:visible;"/>
		</clipPath>
		<g style="clip-path:url(#SVGID_00000083790801899271413640000012871318749678190015_);">
			
				<use xlink:href="#a"  width="4.4" height="7" x="-2.2" y="-3.5" transform="matrix(1 0 0 1 28.0391 567.9922)" style="overflow:visible;"/>
		</g>
	</g>
	
		<use xlink:href="#p"  width="5.5" height="7.6" x="-2.8" y="-3.8" transform="matrix(1 0 0 1 34.0782 567.7031)" style="overflow:visible;"/>
	<g>
		<defs>
			<rect id="SVGID_00000148637866013352962890000015215898720488254126_" x="37.6" y="571.5" width="700" height="700"/>
		</defs>
		<clipPath id="SVGID_00000116211688392989291420000017213895654585807779_">
			<use xlink:href="#SVGID_00000148637866013352962890000015215898720488254126_"  style="overflow:visible;"/>
		</clipPath>
		<g style="clip-path:url(#SVGID_00000116211688392989291420000017213895654585807779_);">
			
				<use xlink:href="#b"  width="5.9" height="5.7" x="-2.9" y="-2.9" transform="matrix(1 0 0 1 40.9688 568.7734)" style="overflow:visible;"/>
		</g>
	</g>
	
		<use xlink:href="#o"  width="6.5" height="7.3" x="-3.3" y="-3.6" transform="matrix(1 0 0 1 52.0547 567.8516)" style="overflow:visible;"/>
	<g>
		<defs>
			<rect id="SVGID_00000164498115669709277770000005552161878920043430_" x="56.2" y="571.5" width="700" height="700"/>
		</defs>
		<clipPath id="SVGID_00000160189779403210118540000017893652759273516698_">
			<use xlink:href="#SVGID_00000164498115669709277770000005552161878920043430_"  style="overflow:visible;"/>
		</clipPath>
		<g style="clip-path:url(#SVGID_00000160189779403210118540000017893652759273516698_);">
			
				<use xlink:href="#c"  width="6" height="5.7" x="-3" y="-2.9" transform="matrix(1 0 0 1 59.6719 568.7734)" style="overflow:visible;"/>
		</g>
	</g>
	
		<use xlink:href="#n"  width="5.5" height="5.6" x="-2.7" y="-2.8" transform="matrix(1 0 0 1 66.6367 568.8359)" style="overflow:visible;"/>
	<g>
		<defs>
			<rect id="SVGID_00000019670813595916365650000007950553695731129779_" x="70.2" y="571.5" width="700" height="700"/>
		</defs>
		<clipPath id="SVGID_00000117637521394474739630000000614653195377761953_">
			<use xlink:href="#SVGID_00000019670813595916365650000007950553695731129779_"  style="overflow:visible;"/>
		</clipPath>
		<g style="clip-path:url(#SVGID_00000117637521394474739630000000614653195377761953_);">
			
				<use xlink:href="#e"  width="5.5" height="5.6" x="-2.8" y="-2.8" transform="matrix(1 0 0 1 73.8165 568.7031)" style="overflow:visible;"/>
		</g>
	</g>
	<g>
		<defs>
			<rect id="SVGID_00000111874788457460078890000011402533453515096998_" x="80.8" y="571.5" width="700" height="700"/>
		</defs>
		<clipPath id="SVGID_00000128451403770705857430000007400704553094000515_">
			<use xlink:href="#SVGID_00000111874788457460078890000011402533453515096998_"  style="overflow:visible;"/>
		</clipPath>
		<g style="clip-path:url(#SVGID_00000128451403770705857430000007400704553094000515_);">
			
				<use xlink:href="#f"  width="6" height="7.3" x="-3" y="-3.6" transform="matrix(1 0 0 1 84.7461 567.8515)" style="overflow:visible;"/>
		</g>
	</g>
	<g>
		<defs>
			<rect id="SVGID_00000173857146981394131150000001116669100636598684_" x="88.2" y="571.5" width="700" height="700"/>
		</defs>
		<clipPath id="SVGID_00000005264788189524923460000002474956828162571680_">
			<use xlink:href="#SVGID_00000173857146981394131150000001116669100636598684_"  style="overflow:visible;"/>
		</clipPath>
		<g style="clip-path:url(#SVGID_00000005264788189524923460000002474956828162571680_);">
			
				<use xlink:href="#d"  width="4.1" height="5.6" x="-2" y="-2.8" transform="matrix(1 0 0 1 91.0273 568.7031)" style="overflow:visible;"/>
		</g>
	</g>
	<g>
		<defs>
			<rect id="SVGID_00000097466327331109501670000017965991083005561506_" x="93.1" y="571.5" width="700" height="700"/>
		</defs>
		<clipPath id="SVGID_00000068661439769097935130000000724034797447360935_">
			<use xlink:href="#SVGID_00000097466327331109501670000017965991083005561506_"  style="overflow:visible;"/>
		</clipPath>
		<g style="clip-path:url(#SVGID_00000068661439769097935130000000724034797447360935_);">
			
				<use xlink:href="#c"  width="6" height="5.7" x="-3" y="-2.9" transform="matrix(1 0 0 1 96.5234 568.7734)" style="overflow:visible;"/>
		</g>
	</g>
	
		<use xlink:href="#m"  width="2.9" height="9.8" x="-1.5" y="-4.9" transform="matrix(1 0 0 1 101.086 568.7812)" style="overflow:visible;"/>
	<g>
		<defs>
			<rect id="SVGID_00000103244761733959048200000013279725224514569620_" x="103.4" y="571.5" width="700" height="700"/>
		</defs>
		<clipPath id="SVGID_00000085961913551507620570000012596967187143896217_">
			<use xlink:href="#SVGID_00000103244761733959048200000013279725224514569620_"  style="overflow:visible;"/>
		</clipPath>
		<g style="clip-path:url(#SVGID_00000085961913551507620570000012596967187143896217_);">
			
				<use xlink:href="#b"  width="5.9" height="5.7" x="-2.9" y="-2.9" transform="matrix(1 0 0 1 106.75 568.7734)" style="overflow:visible;"/>
		</g>
	</g>
	<g>
		<defs>
			<rect id="SVGID_00000105402802413163749100000005937374033859576994_" x="110.2" y="571.5" width="700" height="700"/>
		</defs>
		<clipPath id="SVGID_00000161593045225043414160000013448456676030688175_">
			<use xlink:href="#SVGID_00000105402802413163749100000005937374033859576994_"  style="overflow:visible;"/>
		</clipPath>
		<g style="clip-path:url(#SVGID_00000161593045225043414160000013448456676030688175_);">
			
				<use xlink:href="#g"  width="4.8" height="5.7" x="-2.4" y="-2.9" transform="matrix(1 0 0 1 113.0156 568.7734)" style="overflow:visible;"/>
		</g>
	</g>
	<g>
		<defs>
			<rect id="SVGID_00000098200130403976133660000009750040455947495567_" x="116.1" y="571.5" width="700" height="700"/>
		</defs>
		<clipPath id="SVGID_00000112591051933766647860000013339238410966401940_">
			<use xlink:href="#SVGID_00000098200130403976133660000009750040455947495567_"  style="overflow:visible;"/>
		</clipPath>
		<g style="clip-path:url(#SVGID_00000112591051933766647860000013339238410966401940_);">
			
				<use xlink:href="#a"  width="4.4" height="7" x="-2.2" y="-3.5" transform="matrix(1 0 0 1 118.4297 567.9922)" style="overflow:visible;"/>
		</g>
	</g>
</g>
</svg>
