<?xml version="1.0" encoding="utf-8"?>
<!-- Generator: Adobe Illustrator 27.2.0, SVG Export Plug-In . SVG Version: 6.00 Build 0)  -->
<svg version="1.1" id="Layer_1" xmlns="http://www.w3.org/2000/svg" xmlns:xlink="http://www.w3.org/1999/xlink" x="0px" y="0px"
	 viewBox="0 0 658 574.6" style="enable-background:new 0 0 658 574.6;" xml:space="preserve">
<symbol  id="a" viewBox="-13.6 -16.7 27.2 33.4">
	<path d="M-13.6-16.7h7.7L0.5-0.4l5.5-16.2h7.7L3.5,9.5c-1,2.7-2.2,4.5-3.5,5.6c-1.3,1.1-3.1,1.6-5.3,1.6h-4.4v-5h2.4
		c1.3,0,2.2-0.2,2.8-0.6c0.6-0.4,1.1-1.1,1.4-2.2l0.2-0.7L-13.6-16.7z"/>
</symbol>
<symbol  id="b" viewBox="-12.1 -12.6 24.2 25.1">
	<path d="M0.4,1.2c-1.6,0-2.8,0.3-3.6,0.8C-4,2.5-4.4,3.3-4.4,4.4c0,1,0.3,1.7,1,2.3c0.6,0.5,1.5,0.8,2.7,0.8c1.4,0,2.6-0.5,3.6-1.5
		c1-1,1.5-2.3,1.5-3.9V1.2L0.4,1.2z M12.1-1.7v13.7H4.4V8.4c-1,1.4-2.2,2.5-3.5,3.2c-1.3,0.7-2.8,1-4.7,1c-2.5,0-4.5-0.7-6-2.2
		c-1.5-1.4-2.3-3.3-2.3-5.6c0-2.8,1-4.9,2.9-6.2c1.9-1.3,5-2,9.1-2h4.5V-4c0-1.2-0.5-2.1-1.4-2.7C2-7.2,0.5-7.5-1.5-7.5
		c-1.6,0-3.2,0.2-4.6,0.5C-7.5-6.7-8.8-6.2-10-5.5v-5.8c1.6-0.4,3.3-0.7,4.9-0.9c1.7-0.2,3.3-0.3,5-0.3c4.3,0,7.4,0.9,9.3,2.6
		C11.1-8.3,12.1-5.5,12.1-1.7L12.1-1.7z"/>
</symbol>
<symbol  id="c" viewBox="-12.8 -12.6 25.7 25.1">
	<path d="M12.8-0.1v2.2H-5c0.2,1.8,0.8,3.1,1.9,4C-2,7-0.4,7.5,1.6,7.5c1.6,0,3.3-0.2,4.9-0.7c1.7-0.5,3.4-1.2,5.2-2.2v5.9
		c-1.8,0.7-3.6,1.2-5.4,1.5c-1.8,0.4-3.6,0.5-5.4,0.5c-4.3,0-7.7-1.1-10.1-3.3C-11.6,7.1-12.8,4-12.8,0c0-3.9,1.2-7,3.5-9.2
		c2.4-2.2,5.6-3.4,9.7-3.4c3.8,0,6.8,1.1,9,3.4C11.7-6.9,12.8-3.9,12.8-0.1L12.8-0.1z M5-2.6c0-1.5-0.4-2.6-1.3-3.5
		C2.9-7,1.8-7.5,0.4-7.5c-1.5,0-2.7,0.4-3.6,1.2c-0.9,0.8-1.5,2-1.7,3.6H5z"/>
</symbol>
<symbol  id="d" viewBox="-11.3 -15.9 22.7 31.9">
	<path d="M-11.3-15.9h22.2v6.2h-14v5.9H10v6.2H-3.1v7.3h14.5v6.2h-22.7L-11.3-15.9z"/>
</symbol>
<symbol  id="e" viewBox="-12.8 -16.9 25.7 33.9">
	<path d="M-0.1,11.4c1.6,0,2.9-0.6,3.8-1.8c0.9-1.2,1.3-2.9,1.3-5.2c0-2.3-0.4-4-1.3-5.2C2.8-2,1.5-2.6-0.1-2.6
		C-1.7-2.6-3-2-3.9-0.8c-0.9,1.2-1.3,2.9-1.3,5.2c0,2.3,0.4,4,1.3,5.2C-3,10.8-1.7,11.4-0.1,11.4L-0.1,11.4z M-5.2-4.1
		C-4.1-5.5-3-6.5-1.7-7.2c1.3-0.7,2.8-1,4.4-1C5.7-8.2,8.1-7,10-4.7c1.9,2.3,2.8,5.4,2.8,9s-0.9,6.7-2.8,9c-1.9,2.3-4.3,3.5-7.3,3.5
		c-1.7,0-3.1-0.3-4.4-1s-2.4-1.7-3.5-3.1v3.5h-7.7v-33.2h7.7V-4.1z"/>
</symbol>
<symbol  id="f" viewBox="-12.8 -16.9 25.7 33.9">
	<path d="M5.1-4.1v-12.8h7.7v33.2H5.1v-3.5c-1.1,1.4-2.2,2.4-3.5,3.1c-1.3,0.7-2.7,1-4.4,1c-2.9,0-5.4-1.2-7.3-3.5
		c-1.9-2.3-2.8-5.4-2.8-9s0.9-6.7,2.8-9C-8.1-7-5.7-8.2-2.7-8.2c1.7,0,3.1,0.3,4.4,1C2.9-6.5,4.1-5.5,5.1-4.1L5.1-4.1z M0.1,11.4
		c1.6,0,2.9-0.6,3.8-1.8c0.9-1.2,1.3-2.9,1.3-5.2c0-2.3-0.4-4-1.3-5.2C3-2,1.7-2.6,0.1-2.6c-1.6,0-2.9,0.6-3.7,1.8
		c-0.9,1.2-1.3,2.9-1.3,5.2c0,2.3,0.4,4,1.3,5.2C-2.8,10.8-1.5,11.4,0.1,11.4z"/>
</symbol>
<symbol  id="g" viewBox="-9.7 -15.4 19.3 30.7">
	<path d="M1.8-15.4v6.8h7.9v5.5H1.8V7c0,1.1,0.2,1.9,0.7,2.3c0.4,0.4,1.3,0.6,2.6,0.6H9v5.5H2.4c-3,0-5.2-0.6-6.4-1.9
		c-1.3-1.3-1.9-3.4-1.9-6.4V-3.1h-3.8v-5.5h3.8v-6.8L1.8-15.4z"/>
</symbol>
<symbol  id="h" viewBox="-8.9 -12.3 17.8 24.5">
	<path d="M8.9-5.2c-0.7-0.3-1.4-0.5-2-0.7C6.2-6,5.6-6.1,4.9-6.1c-2,0-3.5,0.6-4.5,1.9c-1.1,1.3-1.6,3.1-1.6,5.4v11h-7.7v-23.9h7.7
		v3.9c1-1.6,2.1-2.7,3.4-3.4c1.3-0.7,2.8-1.1,4.6-1.1c0.2,0,0.5,0,0.8,0c0.3,0,0.7,0.1,1.3,0.1L8.9-5.2z"/>
</symbol>
<symbol  id="i" viewBox="-12.8 -16.8 25.7 33.6">
	<path d="M-5.2,4.3v12.5h-7.7v-33h7.7v3.5c1.1-1.4,2.2-2.4,3.5-3.1c1.3-0.7,2.8-1,4.4-1c2.9,0,5.4,1.2,7.3,3.5
		c1.9,2.3,2.8,5.4,2.8,9s-0.9,6.7-2.8,9C8.1,7.2,5.7,8.3,2.7,8.3c-1.7,0-3.1-0.3-4.4-1S-4.1,5.6-5.2,4.3L-5.2,4.3z M-0.1-11.2
		c-1.6,0-2.9,0.6-3.8,1.8c-0.9,1.2-1.3,2.9-1.3,5.2c0,2.3,0.4,4,1.3,5.2C-3,2.2-1.7,2.8-0.1,2.8c1.6,0,2.9-0.6,3.8-1.8
		C4.5-0.2,4.9-2,4.9-4.2c0-2.3-0.4-4-1.3-5.2C2.8-10.6,1.5-11.3-0.1-11.2L-0.1-11.2z"/>
</symbol>
<symbol  id="j" viewBox="-3.8 -16.6 7.7 33.2">
	<path d="M-3.8-16.6h7.7v33.2h-7.7L-3.8-16.6z"/>
</symbol>
<symbol  id="k" viewBox="-10.6 -12.6 21.1 25.1">
	<path d="M10.6-11.2V-5c-1-0.7-2.1-1.2-3.1-1.6c-1-0.3-2.1-0.5-3.2-0.5c-2.1,0-3.8,0.6-5,1.9C-2-4-2.6-2.2-2.6,0
		c0,2.2,0.6,4,1.8,5.2c1.2,1.2,2.9,1.9,5,1.9c1.2,0,2.3-0.2,3.4-0.5c1.1-0.4,2.1-0.9,3-1.6v6.3c-1.2,0.4-2.4,0.8-3.6,1
		c-1.2,0.2-2.5,0.3-3.7,0.3c-4.3,0-7.7-1.1-10.1-3.3s-3.7-5.3-3.7-9.2c0-3.9,1.2-7,3.7-9.2c2.4-2.2,5.8-3.3,10.1-3.3
		c1.3,0,2.5,0.1,3.7,0.3S9.4-11.7,10.6-11.2L10.6-11.2z"/>
</symbol>
<symbol  id="l" viewBox="-12 -12.3 24 24.5">
	<path d="M-12,2.3v-14.6h7.7v2.4c0,1.3,0,2.9,0,4.9c0,2,0,3.3,0,3.9c0,1.9,0,3.3,0.1,4.2C-4.1,3.9-4,4.5-3.7,4.9
		C-3.4,5.4-3,5.8-2.5,6.1C-2,6.3-1.4,6.5-0.7,6.5c1.6,0,2.8-0.6,3.7-1.8c0.9-1.2,1.4-2.9,1.4-5.1v-11.8H12v23.9H4.4V8.2
		C3.2,9.6,2,10.6,0.7,11.3c-1.3,0.7-2.7,1-4.2,1c-2.8,0-4.9-0.8-6.3-2.5C-11.3,8-12,5.6-12,2.3L-12,2.3z"/>
</symbol>
<symbol  id="m" viewBox="-13.6 -16.5 27.1 33.1">
	<path d="M13.6,14.2c-1.5,0.8-3.1,1.4-4.7,1.8c-1.6,0.4-3.3,0.6-5.1,0.6c-5.3,0-9.5-1.5-12.6-4.5c-3.1-3-4.7-7-4.7-12.1
		s1.6-9.1,4.7-12.1c3.1-3,7.3-4.5,12.6-4.5c1.8,0,3.5,0.2,5.1,0.6c1.6,0.4,3.2,1,4.7,1.8v6.6c-1.5-1-3-1.8-4.5-2.3
		c-1.5-0.5-3-0.7-4.7-0.7c-2.9,0-5.2,0.9-6.9,2.8C-4.2-5.9-5.1-3.3-5.1,0c0,3.3,0.8,5.9,2.5,7.8c1.7,1.9,4,2.8,6.9,2.8
		c1.6,0,3.2-0.2,4.7-0.7c1.5-0.5,3-1.3,4.5-2.3V14.2z"/>
</symbol>
<g>
	<path d="M156,179.4c33.8,0,61.2-27.5,61.2-61.2S189.8,56.9,156,56.9s-61.2,27.5-61.2,61.2S122.2,179.4,156,179.4z M113.1,109.4
		h51.6V91.9h-43.5c8-10.6,20.5-17.5,34.8-17.5c24.1,0,43.8,19.6,43.8,43.8c0,3-0.3,5.9-0.9,8.8h-51.6v17.5h43.5
		c-8,10.6-20.5,17.5-34.8,17.5c-24.1,0-43.8-19.6-43.8-43.8C112.3,115.1,112.6,112.2,113.1,109.4z"/>
	<path d="M488.5,424.4c-33.8,0-61.2,27.5-61.2,61.2s27.5,61.2,61.2,61.2s61.2-27.5,61.2-61.2S522.3,424.4,488.5,424.4z M516.3,519.1
		c-1-2.2-1.6-4.7-1.6-7.2c0-9.3,7.4-16.9,16.6-17.4C529.3,504.4,523.8,512.9,516.3,519.1L516.3,519.1z M505.6,445.4
		c-1.6,8-8.7,14-17.1,14s-15.5-6-17.1-14c5.3-2.3,11.1-3.5,17.1-3.5C494.6,441.9,500.4,443.1,505.6,445.4z M460.7,519.1
		c-7.5-6.2-13-14.8-15-24.6c9.2,0.5,16.6,8.1,16.6,17.4C462.2,514.4,461.7,516.9,460.7,519.1L460.7,519.1z M476,527.3
		c2.4-4.8,3.8-10,3.8-15.5c0-19-15.2-34.4-34.1-34.9c1.6-8,5.5-15.2,10.9-21c5.4,12.3,17.7,20.9,32,20.9s26.5-8.6,32-20.9
		c5.4,5.8,9.3,12.9,10.9,21c-18.9,0.5-34.1,15.9-34.1,34.9c0,5.4,1.4,10.7,3.8,15.5c-4,1.2-8.1,2-12.5,2S480,528.5,476,527.3
		L476,527.3z"/>
	<path d="M177.9,441.9c15.6,0,31.2-3.7,45.6-10.9c9.2-4.6,19-7.6,29.1-8.8l45.1-5.6c13.8-1.7,26.1-9.3,33.8-20.8
		c5.5-8.2,8.4-17.7,8.4-27.6v-7.9c0-17.4-6.8-33.8-19.1-46.2l-1.9-1.9c-9-9-14-21-14-33.8c0-21-10.2-40.9-27.3-53.1
		c-26.1-18.6-56.8-28.5-88.8-28.5h-10.3c-16.5,0-32,6.4-43.8,17.9l-0.7,0.7c-5.7,5.6-12.8,9.6-20.6,11.5l-2.1,0.5
		c-13.9,3.5-26.2,11.7-34.8,23.1c-10.7,14.2-16.6,31.9-16.6,49.7v19.1c0,30.1,9.9,59.9,28,84c18.1,24.1,46.9,38.5,77,38.5
		L177.9,441.9L177.9,441.9L177.9,441.9z M101.8,392.9c-15.8-21.1-24.5-47.2-24.5-73.5v-19.1c0-14,4.6-27.9,13.1-39.2
		c6.2-8.2,15.1-14.1,25.1-16.6l2.1-0.5c10.8-2.7,20.7-8.2,28.6-16l0.7-0.7c8.5-8.3,19.7-12.9,31.5-12.9h10.3
		c28.4,0,55.6,8.7,78.7,25.2c12.5,9,20,23.5,20,38.9c0,17.4,6.8,33.8,19.1,46.2l1.9,1.9c9,9,14,21,14,33.8v7.9
		c0,6.4-1.9,12.6-5.4,17.9c-4.9,7.3-12.6,12.1-21.3,13.2l-45.1,5.6c-12.1,1.5-23.8,5-35.2,10.7c-11.5,5.8-24.4,8.8-37.3,8.8h0h-13.2
		C140.1,424.4,116.6,412.6,101.8,392.9L101.8,392.9z"/>
	<path d="M199.8,284.4h17.5v17.5h-17.5V284.4z"/>
	<path d="M164.8,319.4h17.5v17.5h-17.5V319.4z"/>
	<path d="M549.8,240.6c0,4.8-3.9,8.8-8.8,8.8h-35c-14.5,0-26.2,11.8-26.2,26.2s11.8,26.2,26.2,26.2h43.8v-17.5H506
		c-4.8,0-8.8-3.9-8.8-8.8s3.9-8.8,8.8-8.8h35c14.5,0,26.2-11.8,26.2-26.2s-11.8-26.2-26.2-26.2H322.2v17.5H541
		C545.8,231.9,549.8,235.8,549.8,240.6z"/>
	<path d="M497.2,319.4h96.2v17.5h-96.2V319.4z"/>
	<path d="M576,354.4H401c-4.8,0-8.8-3.9-8.8-8.8s3.9-8.8,8.8-8.8h35c14.5,0,26.2-11.8,26.2-26.2s-11.8-26.2-26.2-26.2h-52.5
		c-4.8,0-8.8-3.9-8.8-8.8v-8.8h-17.5v8.8c0,14.5,11.8,26.2,26.2,26.2H436c4.8,0,8.8,3.9,8.8,8.8s-3.9,8.8-8.8,8.8h-35
		c-14.5,0-26.2,11.8-26.2,26.2s11.8,26.2,26.2,26.2h175c4.8,0,8.8,3.9,8.8,8.8s-3.9,8.8-8.8,8.8H374.8c-14.5,0-26.2,11.8-26.2,26.2
		s11.8,26.2,26.2,26.2c4.8,0,8.8,3.9,8.8,8.8s-3.9,8.8-8.8,8.8H217.2v17.5h157.5c14.5,0,26.2-11.8,26.2-26.2s-11.8-26.2-26.2-26.2
		c-4.8,0-8.8-3.9-8.8-8.8s3.9-8.8,8.8-8.8H576c14.5,0,26.2-11.8,26.2-26.2S590.5,354.4,576,354.4z"/>
	<path d="M269.8,161.9v-17.5h17.5v-17.5h-17.5v-17.5h-17.5v17.5h-17.5v17.5h17.5v17.5H269.8z"/>
	<path d="M94.8,476.9H77.2v17.5H59.8v17.5h17.5v17.5h17.5v-17.5h17.5v-17.5H94.8V476.9z"/>
	<path d="M392.2,494.4h-17.5v17.5h-17.5v17.5h17.5v17.5h17.5v-17.5h17.5v-17.5h-17.5V494.4z"/>
	<path d="M497.2,126.9h17.5v-35h35V74.4h-35v-35h-17.5v35h-35v17.5h35V126.9z"/>
	<path d="M383.5,196.9c14.5,0,26.2-11.8,26.2-26.2s-11.8-26.2-26.2-26.2s-26.2,11.8-26.2,26.2S369,196.9,383.5,196.9z M383.5,161.9
		c4.8,0,8.8,3.9,8.8,8.8s-3.9,8.8-8.8,8.8s-8.8-3.9-8.8-8.8S378.7,161.9,383.5,161.9z"/>
	<path d="M121,319.4c-14.5,0-26.2,11.8-26.2,26.2s11.8,26.2,26.2,26.2s26.2-11.8,26.2-26.2S135.5,319.4,121,319.4z M121,354.4
		c-4.8,0-8.8-3.9-8.8-8.8s3.9-8.8,8.8-8.8s8.8,3.9,8.8,8.8S125.8,354.4,121,354.4z"/>
	<path d="M164.8,284.4c14.5,0,26.2-11.8,26.2-26.2h-17.5c0,4.8-3.9,8.8-8.8,8.8s-8.8-3.9-8.8-8.8s3.9-8.8,8.8-8.8v-17.5
		c-14.5,0-26.2,11.8-26.2,26.2S150.3,284.4,164.8,284.4z"/>
	<path d="M261,371.9v-17.5c-4.8,0-8.8-3.9-8.8-8.8s3.9-8.8,8.8-8.8s8.8,3.9,8.8,8.8h17.5c0-14.5-11.8-26.2-26.2-26.2
		s-26.2,11.8-26.2,26.2S246.5,371.9,261,371.9z"/>
	<path d="M243.5,56.9c14.5,0,26.2-11.8,26.2-26.2S258,4.4,243.5,4.4s-26.2,11.8-26.2,26.2S229,56.9,243.5,56.9z M243.5,21.9
		c4.8,0,8.8,3.9,8.8,8.8s-3.9,8.8-8.8,8.8s-8.8-3.9-8.8-8.8S238.7,21.9,243.5,21.9z"/>
	<path d="M576,179.4c14.5,0,26.2-11.8,26.2-26.2s-11.8-26.2-26.2-26.2s-26.2,11.8-26.2,26.2S561.5,179.4,576,179.4z M576,144.4
		c4.8,0,8.8,3.9,8.8,8.8s-3.9,8.8-8.8,8.8s-8.8-3.9-8.8-8.8S571.2,144.4,576,144.4z"/>
	<path d="M164.8,459.4h17.5v17.5h-17.5V459.4z"/>
	<path d="M199.8,520.6h17.5v17.5h-17.5V520.6z"/>
	<path d="M304.8,494.4h17.5v17.5h-17.5V494.4z"/>
	<path d="M497.2,179.4h17.5v17.5h-17.5V179.4z"/>
	<path d="M409.8,56.9h17.5v17.5h-17.5V56.9z"/>
	<path d="M322.2,39.4h17.5v17.5h-17.5V39.4z"/>
	<path d="M77.2,179.4h17.5v17.5H77.2V179.4z"/>
	<path d="M191,371.9c4.8,0,8.8,3.9,8.8,8.8s-3.9,8.8-8.8,8.8v17.5c14.5,0,26.2-11.8,26.2-26.2s-11.8-26.2-26.2-26.2
		s-26.2,11.8-26.2,26.2h17.5C182.2,375.8,186.2,371.9,191,371.9z"/>
	
		<use xlink:href="#m"  width="27.1" height="33.1" x="-13.6" y="-16.5" transform="matrix(1 0 0 1 66.7415 670.9529)" style="overflow:visible;"/>
	
		<use xlink:href="#h"  width="17.8" height="24.5" x="-8.9" y="-12.3" transform="matrix(1 0 0 1 95.6718 674.6255)" style="overflow:visible;"/>
	
		<use xlink:href="#c"  width="25.7" height="25.1" x="-12.8" y="-12.6" transform="matrix(1 0 0 1 119.4018 674.9377)" style="overflow:visible;"/>
	
		<use xlink:href="#b"  width="24.2" height="25.1" x="-12.1" y="-12.6" transform="matrix(1 0 0 1 148.3329 674.9369)" style="overflow:visible;"/>
	
		<use xlink:href="#g"  width="19.3" height="30.7" x="-9.7" y="-15.4" transform="matrix(1 0 0 1 174.1208 671.5156)" style="overflow:visible;"/>
	<g>
		<defs>
			<rect id="SVGID_1_" x="184.8" y="686.9" width="700" height="700"/>
		</defs>
		<clipPath id="SVGID_00000005229129484283315040000016138388093295950208_">
			<use xlink:href="#SVGID_1_"  style="overflow:visible;"/>
		</clipPath>
		<g style="clip-path:url(#SVGID_00000005229129484283315040000016138388093295950208_);">
			
				<use xlink:href="#c"  width="25.7" height="25.1" x="-12.8" y="-12.6" transform="matrix(1 0 0 1 199.5112 674.9377)" style="overflow:visible;"/>
		</g>
	</g>
	
		<use xlink:href="#f"  width="25.7" height="33.9" x="-12.8" y="-16.9" transform="matrix(1 0 0 1 229.2694 670.5706)" style="overflow:visible;"/>
	
		<use xlink:href="#e"  width="25.7" height="33.9" x="-12.8" y="-16.9" transform="matrix(1 0 0 1 277.5272 670.5709)" style="overflow:visible;"/>
	
		<use xlink:href="#a"  width="27.2" height="33.4" x="-13.6" y="-16.7" transform="matrix(1 0 0 1 306.4609 679.6329)" style="overflow:visible;"/>
	
		<use xlink:href="#d"  width="22.7" height="31.9" x="-11.3" y="-15.9" transform="matrix(1 0 0 1 351.4297 670.9294)" style="overflow:visible;"/>
	
		<use xlink:href="#l"  width="24" height="24.5" x="-12" y="-12.3" transform="matrix(1 0 0 1 381.4102 675.2272)" style="overflow:visible;"/>
	
		<use xlink:href="#k"  width="21.1" height="25.1" x="-10.6" y="-12.6" transform="matrix(1 0 0 1 409.5508 674.9374)" style="overflow:visible;"/>
	<g>
		<defs>
			<rect id="SVGID_00000009573288837805723820000000006153802869896343_" x="423" y="686.9" width="700" height="700"/>
		</defs>
		<clipPath id="SVGID_00000021813817938779021180000015739405628837026192_">
			<use xlink:href="#SVGID_00000009573288837805723820000000006153802869896343_"  style="overflow:visible;"/>
		</clipPath>
		<g style="clip-path:url(#SVGID_00000021813817938779021180000015739405628837026192_);">
			
				<use xlink:href="#b"  width="24.2" height="25.1" x="-12.1" y="-12.6" transform="matrix(1 0 0 1 437.0243 674.9369)" style="overflow:visible;"/>
		</g>
	</g>
	
		<use xlink:href="#j"  width="7.7" height="33.2" x="-3.8" y="-16.6" transform="matrix(1 0 0 1 460.0703 670.258)" style="overflow:visible;"/>
	<g>
		<defs>
			<rect id="SVGID_00000133497335006854687300000008315820508835499665_" x="467.6" y="686.9" width="700" height="700"/>
		</defs>
		<clipPath id="SVGID_00000134939252335062259850000008844043293140131511_">
			<use xlink:href="#SVGID_00000133497335006854687300000008315820508835499665_"  style="overflow:visible;"/>
		</clipPath>
		<g style="clip-path:url(#SVGID_00000134939252335062259850000008844043293140131511_);">
			
				<use xlink:href="#a"  width="27.2" height="33.4" x="-13.6" y="-16.7" transform="matrix(1 0 0 1 481.6992 679.6329)" style="overflow:visible;"/>
		</g>
	</g>
	
		<use xlink:href="#i"  width="25.7" height="33.6" x="-12.8" y="-16.8" transform="matrix(1 0 0 1 512.5976 679.1719)" style="overflow:visible;"/>
</g>
</svg>
